<?xml version="1.0" standalone="no"?>
<!DOCTYPE svg PUBLIC "-//W3C//DTD SVG 20010904//EN"
 "http://www.w3.org/TR/2001/REC-SVG-20010904/DTD/svg10.dtd">
<svg version="1.0" xmlns="http://www.w3.org/2000/svg"
 width="1024.000000pt" height="1024.000000pt" viewBox="0 0 1024.000000 1024.000000"
 preserveAspectRatio="xMidYMid meet">

<g transform="translate(0.000000,1024.000000) scale(0.100000,-0.100000)"
fill="#000000" stroke="none">
<path d="M2705 8084 c-243 -27 -515 -107 -695 -206 -492 -270 -805 -697 -928
-1268 -25 -117 -27 -141 -27 -375 0 -235 2 -258 28 -378 34 -160 65 -252 132
-394 268 -564 804 -948 1452 -1039 141 -19 403 -15 553 11 436 73 842 275
1290 640 125 101 330 285 330 296 0 4 -71 7 -157 7 -181 -2 -254 12 -366 68
-95 48 -116 46 -201 -24 -301 -247 -613 -401 -916 -453 -346 -60 -679 -12
-957 137 -332 179 -556 477 -634 845 -32 149 -32 400 -1 551 55 265 168 476
356 663 189 188 429 312 698 361 124 23 371 23 494 1 368 -66 709 -274 1185
-722 l87 -82 168 -6 c93 -4 378 -10 634 -13 l465 -7 35 29 c19 16 93 80 165
143 165 145 373 307 496 387 237 155 509 257 751 283 440 48 811 -73 1099
-359 103 -103 169 -195 234 -325 103 -209 138 -363 139 -610 0 -247 -37 -405
-145 -615 -245 -478 -787 -750 -1349 -676 -377 50 -707 200 -1014 462 -87 74
-101 77 -184 35 -124 -62 -247 -83 -424 -74 -88 5 -108 3 -108 -8 0 -8 39 -52
87 -98 611 -584 1194 -859 1821 -861 307 0 574 60 833 190 228 115 332 191
529 390 250 252 409 567 476 937 25 138 25 449 1 593 -109 640 -453 1112
-1012 1385 -549 270 -1204 239 -1797 -84 -359 -196 -672 -454 -1090 -900
l-125 -133 -254 254 c-425 425 -685 627 -1030 803 -223 114 -452 188 -679 220
-108 15 -374 27 -445 19z m223 -21 c-10 -2 -26 -2 -35 0 -10 3 -2 5 17 5 19 0
27 -2 18 -5z m4480 0 c-10 -2 -26 -2 -35 0 -10 3 -2 5 17 5 19 0 27 -2 18 -5z
m-4743 -14 c-22 -4 -51 -8 -65 -7 -35 1 34 15 75 16 25 0 23 -2 -10 -9z m382
5 c-3 -3 -12 -4 -19 -1 -8 3 -5 6 6 6 11 1 17 -2 13 -5z m4566 -11 c-7 -2 -19
-2 -25 0 -7 3 -2 5 12 5 14 0 19 -2 13 -5z m-5050 -10 c-7 -2 -21 -2 -30 0
-10 3 -4 5 12 5 17 0 24 -2 18 -5z m652 -2 c-18 -7 -55 -4 -55 5 0 2 17 4 38
3 28 0 32 -2 17 -8z m3788 2 c-7 -2 -19 -2 -25 0 -7 3 -2 5 12 5 14 0 19 -2
13 -5z m654 1 c-3 -3 -12 -4 -19 -1 -8 3 -5 6 6 6 11 1 17 -2 13 -5z m-5197
-19 c-30 -8 -62 -14 -70 -14 -24 1 72 27 100 27 14 0 0 -6 -30 -13z m840 5
c20 -6 21 -8 5 -8 -11 0 -29 3 -40 8 -25 11 1 11 35 0z m3615 -5 c-65 -17
-103 -17 -45 0 25 7 56 13 70 13 14 0 3 -6 -25 -13z m860 1 c64 -18 38 -19
-40 -1 -33 7 -49 14 -35 14 14 0 48 -6 75 -13z m-4418 -12 c-3 -3 -12 -4 -19
-1 -8 3 -5 6 6 6 11 1 17 -2 13 -5z m-1027 -24 c-8 -5 -22 -10 -30 -10 -13 0
-13 1 0 10 8 5 22 10 30 10 13 0 13 -1 0 -10z m5565 0 c13 -5 14 -9 5 -9 -8 0
-24 4 -35 9 -13 5 -14 9 -5 9 8 0 24 -4 35 -9z m-5618 -16 c-3 -3 -12 -4 -19
-1 -8 3 -5 6 6 6 11 1 17 -2 13 -5z m5673 -4 c13 -8 13 -10 -2 -10 -9 0 -20 5
-23 10 -8 13 5 13 25 0z m-5714 -7 c-3 -4 -21 -12 -39 -19 -17 -6 -41 -15 -52
-19 -12 -5 -17 -5 -12 1 9 9 86 42 101 43 5 1 6 -2 2 -6z m1363 -30 c4 -3 -3
-2 -14 2 -11 5 -29 9 -41 9 -11 1 -21 6 -21 13 0 9 10 8 36 -3 19 -8 37 -17
40 -21z m3051 18 c-8 -5 -26 -11 -40 -15 -21 -5 -20 -3 5 9 32 15 60 20 35 6z
m1380 -11 c12 -8 11 -10 -7 -10 -13 0 -23 5 -23 10 0 13 11 13 30 0z m75 -38
c-3 -3 -11 0 -18 7 -9 10 -8 11 6 5 10 -3 15 -9 12 -12z m-6015 3 c0 -5 -69
-43 -102 -57 -40 -16 -14 4 40 31 64 34 62 33 62 26z m1650 -25 c8 -5 11 -10
5 -10 -5 0 -17 5 -25 10 -8 5 -10 10 -5 10 6 0 17 -5 25 -10z m2740 0 c-8 -5
-19 -10 -25 -10 -5 0 -3 5 5 10 8 5 20 10 25 10 6 0 3 -5 -5 -10z m1705 -18
c-3 -3 -11 0 -18 7 -9 10 -8 11 6 5 10 -3 15 -9 12 -12z m-4380 -12 c3 -5 -4
-6 -15 -3 -11 3 -22 9 -25 13 -3 5 4 6 15 3 11 -3 22 -9 25 -13z m2630 10 c-3
-5 -12 -10 -18 -10 -7 0 -6 4 3 10 19 12 23 12 15 0z m1820 -38 c-3 -3 -11 0
-18 7 -9 10 -8 11 6 5 10 -3 15 -9 12 -12z m-6365 -32 c-14 -11 -29 -20 -35
-20 -5 0 4 9 20 20 38 25 48 25 15 0z m4404 -5 c-10 -8 -23 -15 -28 -15 -6 0
-1 7 10 15 10 8 23 15 28 15 6 0 1 -7 -10 -15z m-2349 -13 c-3 -3 -11 0 -18 7
-9 10 -8 11 6 5 10 -3 15 -9 12 -12z m4396 1 c13 -16 12 -17 -3 -4 -10 7 -18
15 -18 17 0 8 8 3 21 -13z m-2106 -23 c-3 -5 -12 -10 -18 -10 -7 0 -6 4 3 10
19 12 23 12 15 0z m2190 -35 c23 -20 18 -19 -17 6 -27 18 -48 34 -48 36 0 7
35 -16 65 -42z m-2255 1 c0 -2 -12 -11 -27 -20 l-28 -17 24 20 c23 21 31 25
31 17z m-4440 -39 c0 -1 -35 -33 -77 -71 l-78 -68 74 71 c69 66 81 76 81 68z
m4310 -52 c-7 -8 -17 -15 -23 -15 -6 0 -2 7 9 15 25 19 30 19 14 0z m2501 -2
c13 -16 12 -17 -3 -4 -10 7 -18 15 -18 17 0 8 8 3 21 -13z m-4256 -76 c13 -12
-7 -1 -58 33 -20 14 -37 29 -37 33 0 8 67 -39 95 -66z m4305 28 c13 -14 21
-25 18 -25 -2 0 -15 11 -28 25 -13 14 -21 25 -18 25 2 0 15 -11 28 -25z
m-5777 -2 c-7 -2 -21 -2 -30 0 -10 3 -4 5 12 5 17 0 24 -2 18 -5z m44 1 c-3
-3 -12 -4 -19 -1 -8 3 -5 6 6 6 11 1 17 -2 13 -5z m56 -1 c-7 -2 -19 -2 -25 0
-7 3 -2 5 12 5 14 0 19 -2 13 -5z m110 0 c-13 -2 -33 -2 -45 0 -13 2 -3 4 22
4 25 0 35 -2 23 -4z m4465 0 c-10 -2 -26 -2 -35 0 -10 3 -2 5 17 5 19 0 27 -2
18 -5z m75 -10 c-7 -2 -19 -2 -25 0 -7 3 -2 5 12 5 14 0 19 -2 13 -5z m-1653
-34 c-46 -36 -80 -60 -80 -56 0 6 92 77 99 77 3 0 -5 -9 -19 -21z m1077 15
c-3 -3 -12 -4 -19 -1 -8 3 -5 6 6 6 11 1 17 -2 13 -5z m680 0 c-3 -3 -12 -4
-19 -1 -8 3 -5 6 6 6 11 1 17 -2 13 -5z m-5152 -24 c-27 -12 -43 -12 -25 0 8
5 22 9 30 9 10 0 8 -3 -5 -9z m802 4 c-3 -3 -12 -4 -19 -1 -8 3 -5 6 6 6 11 1
17 -2 13 -5z m4448 -4 c3 -5 2 -10 -4 -10 -5 0 -13 5 -16 10 -3 6 -2 10 4 10
5 0 13 -4 16 -10z m-4355 -25 c33 -19 21 -19 -21 0 -19 8 -27 14 -19 14 8 0
26 -6 40 -14z m4400 5 c8 -5 11 -10 5 -10 -5 0 -17 5 -25 10 -8 5 -10 10 -5
10 6 0 17 -5 25 -10z m-5430 -24 c0 -2 -7 -7 -16 -10 -8 -3 -12 -2 -9 4 6 10
25 14 25 6z m2031 -33 c13 -16 12 -17 -3 -4 -10 7 -18 15 -18 17 0 8 8 3 21
-13z m4341 -45 c31 -45 14 -32 -28 20 -21 26 -28 38 -15 27 13 -11 32 -32 43
-47z m-5217 42 c3 -6 -1 -7 -9 -4 -18 7 -21 14 -7 14 6 0 13 -4 16 -10z
m-2065 -30 c-11 -16 -26 -33 -32 -36 -7 -4 1 9 16 29 34 44 46 50 16 7z m4285
-7 c-22 -19 -89 -82 -150 -138 -138 -130 -144 -134 -70 -56 59 63 245 231 255
231 3 0 -13 -17 -35 -37z m-3490 17 c-3 -5 -12 -10 -18 -10 -7 0 -6 4 3 10 19
12 23 12 15 0z m2196 -17 c13 -16 12 -17 -3 -4 -10 7 -18 15 -18 17 0 8 8 3
21 -13z m34 -23 c3 -5 1 -10 -4 -10 -6 0 -11 5 -11 10 0 6 2 10 4 10 3 0 8 -4
11 -10z m-765 -46 c0 -2 -13 2 -30 11 -16 9 -30 18 -30 21 0 2 14 -2 30 -11
17 -9 30 -18 30 -21z m2774 21 c-10 -8 -23 -15 -28 -15 -6 0 -1 7 10 15 10 8
23 15 28 15 6 0 1 -7 -10 -15z m1577 -2 c13 -16 12 -17 -3 -4 -10 7 -18 15
-18 17 0 8 8 3 21 -13z m-3546 -13 c10 -11 16 -20 13 -20 -3 0 -13 9 -23 20
-10 11 -16 20 -13 20 3 0 13 -9 23 -20z m-3125 -14 c0 -2 -8 -10 -17 -17 -16
-13 -17 -12 -4 4 13 16 21 21 21 13z m7410 -31 c0 -5 -5 -3 -10 5 -5 8 -10 20
-10 25 0 6 5 3 10 -5 5 -8 10 -19 10 -25z m-5039 8 c13 -17 13 -17 -6 -3 -11
8 -22 16 -24 17 -2 2 0 3 6 3 6 0 17 -8 24 -17z m819 -18 c19 -19 32 -35 29
-35 -3 0 -20 16 -39 35 -19 19 -32 35 -29 35 3 0 20 -16 39 -35z m-2530 11 c0
-2 -8 -10 -17 -17 -16 -13 -17 -12 -4 4 13 16 21 21 21 13z m4300 -20 c0 -2
-12 -11 -27 -20 l-28 -17 24 20 c23 21 31 25 31 17z m-4340 -9 c0 -1 -26 -27
-57 -57 l-58 -55 55 58 c50 53 60 62 60 54z m2640 -52 c13 -14 21 -25 18 -25
-2 0 -15 11 -28 25 -13 14 -21 25 -18 25 2 0 15 -11 28 -25z m1600 -9 c0 -2
-8 -10 -17 -17 -16 -13 -17 -12 -4 4 13 16 21 21 21 13z m2624 -22 c3 -8 2
-12 -4 -9 -6 3 -10 10 -10 16 0 14 7 11 14 -7z m-4894 -40 c0 -3 -13 4 -30 16
-16 12 -30 24 -30 26 0 3 14 -4 30 -16 17 -12 30 -24 30 -26z m765 -20 c22
-34 15 -30 -30 17 -31 32 -34 38 -13 25 15 -10 34 -28 43 -42z m-3470 16 c-9
-16 -18 -30 -21 -30 -2 0 2 14 11 30 9 17 18 30 21 30 2 0 -2 -13 -11 -30z
m615 6 c0 -2 -8 -10 -17 -17 -16 -13 -17 -12 -4 4 13 16 21 21 21 13z m4240
-30 c0 -2 -8 -10 -17 -17 -16 -13 -17 -12 -4 4 13 16 21 21 21 13z m-710 -9
c0 -2 -15 -16 -32 -33 l-33 -29 29 33 c28 30 36 37 36 29z m2921 -14 c13 -16
12 -17 -3 -4 -10 7 -18 15 -18 17 0 8 8 3 21 -13z m-7115 -54 c-14 -30 -25
-50 -25 -46 -1 12 41 108 45 104 3 -2 -7 -28 -20 -58z m3584 16 c19 -19 32
-35 29 -35 -3 0 -20 16 -39 35 -19 19 -32 35 -29 35 3 0 20 -16 39 -35z m1280
31 c0 -2 -8 -10 -17 -17 -16 -13 -17 -12 -4 4 13 16 21 21 21 13z m-2009 -23
c13 -16 12 -17 -3 -4 -17 13 -22 21 -14 21 2 0 10 -8 17 -17z m1269 -26 c0 -2
-17 -19 -37 -38 l-38 -34 34 38 c33 34 41 42 41 34z m-1174 -59 l29 -33 -32
29 c-31 28 -38 36 -30 36 2 0 16 -15 33 -32z m726 -12 c10 -19 8 -18 -16 3
-14 14 -26 29 -26 34 0 13 29 -12 42 -37z m1088 40 c0 -2 -8 -10 -17 -17 -16
-13 -17 -12 -4 4 13 16 21 21 21 13z m2988 -41 c-3 -3 -9 2 -12 12 -6 14 -5
15 5 6 7 -7 10 -15 7 -18z m-3028 2 c0 -2 -12 -14 -27 -28 l-28 -24 24 28 c23
25 31 32 31 24z m-680 -10 c0 -2 -15 -16 -32 -33 l-33 -29 29 33 c28 30 36 37
36 29z m-4097 -47 c-3 -12 -8 -19 -11 -16 -5 6 5 36 12 36 2 0 2 -9 -1 -20z
m3793 -11 c20 -22 23 -28 8 -19 -18 11 -50 50 -41 50 2 0 16 -14 33 -31z
m-705 4 c13 -16 12 -17 -3 -4 -10 7 -18 15 -18 17 0 8 8 3 21 -13z m-3125 -99
c-14 -38 -25 -64 -25 -58 -1 15 40 136 45 131 2 -2 -7 -35 -20 -73z m3894 31
c13 -14 21 -25 18 -25 -2 0 -15 11 -28 25 -13 14 -21 25 -18 25 2 0 15 -11 28
-25z m150 22 c0 -2 -12 -14 -27 -28 l-28 -24 24 28 c23 25 31 32 31 24z m640
-1 c0 -2 -8 -10 -17 -17 -16 -13 -17 -12 -4 4 13 16 21 21 21 13z m-1419 -83
c13 -16 12 -17 -3 -4 -10 7 -18 15 -18 17 0 8 8 3 21 -13z m4657 -54 c-3 -8
-7 -3 -11 10 -4 17 -3 21 5 13 5 -5 8 -16 6 -23z m-7961 -61 c-3 -8 -6 -5 -6
6 -1 11 2 17 5 13 3 -3 4 -12 1 -19z m7480 -50 c-3 -8 -6 -5 -6 6 -1 11 2 17
5 13 3 -3 4 -12 1 -19z m-7500 -65 c-3 -10 -5 -2 -5 17 0 19 2 27 5 18 2 -10
2 -26 0 -35z m8010 25 c-3 -8 -6 -5 -6 6 -1 11 2 17 5 13 3 -3 4 -12 1 -19z
m26 -174 c4 -64 3 -75 -3 -39 -12 74 -20 184 -11 154 5 -14 11 -66 14 -115z
m-8046 84 c-3 -7 -5 -2 -5 12 0 14 2 19 5 13 2 -7 2 -19 0 -25z m7540 -20 c-3
-8 -6 -5 -6 6 -1 11 2 17 5 13 3 -3 4 -12 1 -19z m-7550 -30 c-3 -8 -6 -5 -6
6 -1 11 2 17 5 13 3 -3 4 -12 1 -19z m-4 -89 c-6 -6 -7 3 -4 23 4 28 6 29 9 9
2 -13 0 -27 -5 -32z m7564 14 c-3 -10 -5 -4 -5 12 0 17 2 24 5 18 2 -7 2 -21
0 -30z m-7070 -15 c-3 -8 -6 -5 -6 6 -1 11 2 17 5 13 3 -3 4 -12 1 -19z m7070
-30 c-3 -8 -6 -5 -6 6 -1 11 2 17 5 13 3 -3 4 -12 1 -19z m500 -120 c-2 -24
-4 -7 -4 37 0 44 2 63 4 43 2 -21 2 -57 0 -80z m-8070 70 c-3 -7 -5 -2 -5 12
0 14 2 19 5 13 2 -7 2 -19 0 -25z m500 -160 c-2 -13 -4 -3 -4 22 0 25 2 35 4
23 2 -13 2 -33 0 -45z m7070 0 c-2 -13 -4 -3 -4 22 0 25 2 35 4 23 2 -13 2
-33 0 -45z m-7560 -55 c-3 -10 -5 -2 -5 17 0 19 2 27 5 18 2 -10 2 -26 0 -35z
m7550 -5 c-3 -7 -5 -2 -5 12 0 14 2 19 5 13 2 -7 2 -19 0 -25z m-7050 -20 c-3
-8 -6 -5 -6 6 -1 11 2 17 5 13 3 -3 4 -12 1 -19z m7550 -10 c-3 -8 -6 -5 -6 6
-1 11 2 17 5 13 3 -3 4 -12 1 -19z m-8023 -108 c4 -34 3 -38 -3 -18 -5 15 -12
51 -15 80 -4 43 -4 46 4 18 4 -19 11 -55 14 -80z m7519 90 c-3 -12 -8 -19 -11
-16 -5 6 5 36 12 36 2 0 2 -9 -1 -20z m-6999 -155 c4 -20 3 -25 -3 -15 -5 8
-11 31 -15 50 -7 41 7 13 18 -35z m-507 -27 c-3 -7 -5 -2 -5 12 0 14 2 19 5
13 2 -7 2 -19 0 -25z m52 -163 c0 -5 -4 -3 -9 5 -5 8 -9 22 -9 30 0 16 17 -16
18 -35z m7302 -62 c-12 -20 -14 -14 -5 12 4 9 9 14 11 11 3 -2 0 -13 -6 -23z
m552 12 c-3 -9 -8 -14 -10 -11 -3 3 -2 9 2 15 9 16 15 13 8 -4z m-7214 -130
c3 -6 -6 3 -21 20 -15 16 -28 34 -28 39 0 8 36 -36 49 -59z m2467 -10 c10 -8
14 -15 8 -15 -5 0 -19 7 -30 15 -10 8 -14 15 -8 15 5 0 19 -7 30 -15z m1758 7
c2 -4 -11 -6 -30 -4 -19 2 -34 6 -34 8 0 8 59 4 64 -4z m2346 -16 c0 -2 -8
-10 -17 -17 -16 -13 -17 -12 -4 4 13 16 21 21 21 13z m-2474 -21 c-11 -8 -25
-15 -30 -15 -6 1 0 7 14 15 32 19 40 18 16 0z m-56 -24 c-8 -5 -31 -11 -50
-14 -35 -6 -35 -6 5 8 46 15 67 18 45 6z m-1443 -7 c-3 -3 -12 -4 -19 -1 -8 3
-5 6 6 6 11 1 17 -2 13 -5z m3933 2 c0 -2 -8 -10 -17 -17 -16 -13 -17 -12 -4
4 13 16 21 21 21 13z m-4260 -20 c0 -2 -8 -10 -17 -17 -16 -13 -17 -12 -4 4
13 16 21 21 21 13z m1677 -2 c-3 -3 -12 -4 -19 -1 -8 3 -5 6 6 6 11 1 17 -2
13 -5z m394 -11 c13 -16 12 -17 -3 -4 -10 7 -18 15 -18 17 0 8 8 3 21 -13z
m2759 -13 c-6 -11 -13 -20 -16 -20 -2 0 0 9 6 20 6 11 13 20 16 20 2 0 0 -9
-6 -20z m-6970 -41 c0 -6 -4 -7 -10 -4 -5 3 -10 11 -10 16 0 6 5 7 10 4 6 -3
10 -11 10 -16z m2820 17 c0 -2 -8 -10 -17 -17 -16 -13 -17 -12 -4 4 13 16 21
21 21 13z m-50 -49 c0 -2 -10 -12 -22 -23 l-23 -19 19 23 c18 21 26 27 26 19z
m-795 -23 c-26 -20 -55 -36 -55 -30 0 5 63 46 70 46 3 -1 -4 -8 -15 -16z
m1630 -4 c10 -11 16 -20 13 -20 -3 0 -13 9 -23 20 -10 11 -16 20 -13 20 3 0
13 -9 23 -20z m2665 16 c0 -2 -8 -10 -17 -17 -16 -13 -17 -12 -4 4 13 16 21
21 21 13z m-6836 -22 c3 -8 2 -12 -4 -9 -6 3 -10 10 -10 16 0 14 7 11 14 -7z
m4982 -32 c-4 -3 -14 2 -24 12 -16 18 -16 18 6 6 13 -6 21 -14 18 -18z m1803
12 c-7 -9 -33 -30 -58 -46 -55 -37 -47 -27 17 24 53 41 60 45 41 22z m-6744
-34 c10 -11 16 -20 13 -20 -3 0 -13 9 -23 20 -10 11 -16 20 -13 20 3 0 13 -9
23 -20z m2405 5 c0 -2 -10 -9 -22 -15 -22 -11 -22 -10 -4 4 21 17 26 19 26 11z
m-1709 -22 c13 -16 12 -17 -3 -4 -17 13 -22 21 -14 21 2 0 10 -8 17 -17z
m3524 -3 c10 -11 16 -20 13 -20 -3 0 -13 9 -23 20 -10 11 -16 20 -13 20 3 0
13 -9 23 -20z m825 -16 c0 -2 -9 0 -20 6 -11 6 -20 13 -20 16 0 2 9 0 20 -6
11 -6 20 -13 20 -16z m-2710 1 c0 -2 -10 -9 -22 -15 -22 -11 -22 -10 -4 4 21
17 26 19 26 11z m2750 -15 c13 -8 13 -10 -2 -10 -9 0 -20 5 -23 10 -8 13 5 13
25 0z m-4260 -46 c0 -2 -13 2 -30 11 -16 9 -30 18 -30 21 0 2 14 -2 30 -11 17
-9 30 -18 30 -21z m3495 -14 c10 -11 16 -20 13 -20 -3 0 -13 9 -23 20 -10 11
-16 20 -13 20 3 0 13 -9 23 -20z m-1255 6 c0 -2 -8 -10 -17 -17 -16 -13 -17
-12 -4 4 13 16 21 21 21 13z m-890 -16 c-8 -5 -19 -10 -25 -10 -5 0 -3 5 5 10
8 5 20 10 25 10 6 0 3 -5 -5 -10z m4330 2 c0 -4 -13 -13 -30 -19 -38 -14 -39
-8 -2 11 32 18 32 18 32 8z m-1260 -12 c0 -5 -2 -10 -4 -10 -3 0 -8 5 -11 10
-3 6 -1 10 4 10 6 0 11 -4 11 -10z m-5119 -27 c13 -16 12 -17 -3 -4 -10 7 -18
15 -18 17 0 8 8 3 21 -13z m6289 -3 c-8 -5 -19 -10 -25 -10 -5 0 -3 5 5 10 8
5 20 10 25 10 6 0 3 -5 -5 -10z m840 -4 c0 -2 -8 -10 -17 -17 -16 -13 -17 -12
-4 4 13 16 21 21 21 13z m-906 -21 c-17 -8 -44 -16 -60 -20 -16 -3 -6 4 21 14
57 22 86 26 39 6z m-5299 -5 c13 -6 15 -9 5 -9 -8 0 -22 4 -30 9 -18 12 -2 12
25 0z m92 -26 c-3 -3 -12 -4 -19 -1 -8 3 -5 6 6 6 11 1 17 -2 13 -5z m760 0
c-3 -3 -12 -4 -19 -1 -8 3 -5 6 6 6 11 1 17 -2 13 -5z m-1696 -21 c13 -16 12
-17 -3 -4 -10 7 -18 15 -18 17 0 8 8 3 21 -13z m6989 14 c0 -2 -10 -12 -22
-23 l-23 -19 19 23 c18 21 26 27 26 19z m-5893 -23 c-3 -3 -12 -4 -19 -1 -8 3
-5 6 6 6 11 1 17 -2 13 -5z m80 -10 c-3 -3 -12 -4 -19 -1 -8 3 -5 6 6 6 11 1
17 -2 13 -5z m-1136 -21 c13 -16 12 -17 -3 -4 -10 7 -18 15 -18 17 0 8 8 3 21
-13z m69 -58 c13 -14 21 -25 18 -25 -2 0 -15 11 -28 25 -13 14 -21 25 -18 25
2 0 15 -11 28 -25z m2460 10 c-7 -8 -17 -15 -23 -15 -6 0 -2 7 9 15 25 19 30
19 14 0z m1850 -11 c0 -2 -9 0 -20 6 -11 6 -20 13 -20 16 0 2 9 0 20 -6 11 -6
20 -13 20 -16z m2390 -38 c0 -2 -8 -10 -17 -17 -16 -13 -17 -12 -4 4 13 16 21
21 21 13z m-6580 -53 c0 -7 -39 17 -46 28 -3 6 5 3 20 -6 14 -10 26 -19 26
-22z m92 -53 c18 -11 29 -20 23 -20 -5 0 -23 9 -40 20 -39 26 -25 26 17 0z
m6323 -10 c-3 -5 -12 -10 -18 -10 -7 0 -6 4 3 10 19 12 23 12 15 0z m-6170
-78 c-3 -3 -11 0 -18 7 -9 10 -8 11 6 5 10 -3 15 -9 12 -12z m4560 -80 c-3 -3
-11 0 -18 7 -9 10 -8 11 6 5 10 -3 15 -9 12 -12z m-4340 -2 c13 -6 15 -9 5 -9
-8 0 -22 4 -30 9 -18 12 -2 12 25 0z m4382 -6 c-3 -3 -12 -4 -19 -1 -8 3 -5 6
6 6 11 1 17 -2 13 -5z m-4270 -30 c-3 -3 -12 -4 -19 -1 -8 3 -5 6 6 6 11 1 17
-2 13 -5z m856 -31 c-7 -2 -19 -2 -25 0 -7 3 -2 5 12 5 14 0 19 -2 13 -5z
m4404 1 c-3 -3 -12 -4 -19 -1 -8 3 -5 6 6 6 11 1 17 -2 13 -5z m-5070 -10 c-3
-3 -12 -4 -19 -1 -8 3 -5 6 6 6 11 1 17 -2 13 -5z m611 -1 c-10 -2 -26 -2 -35
0 -10 3 -2 5 17 5 19 0 27 -2 18 -5z m3769 1 c-3 -3 -12 -4 -19 -1 -8 3 -5 6
6 6 11 1 17 -2 13 -5z m650 0 c-3 -3 -12 -4 -19 -1 -8 3 -5 6 6 6 11 1 17 -2
13 -5z m-4494 -11 c-7 -2 -21 -2 -30 0 -10 3 -4 5 12 5 17 0 24 -2 18 -5z
m4410 0 c-7 -2 -21 -2 -30 0 -10 3 -4 5 12 5 17 0 24 -2 18 -5z m-115 -10
c-10 -2 -28 -2 -40 0 -13 2 -5 4 17 4 22 1 32 -1 23 -4z"/>
<path d="M3165 6929 c-39 -11 -55 -34 -55 -79 0 -28 8 -45 39 -76 l39 -41 7
-124 c4 -68 5 -297 3 -507 l-3 -384 -25 -18 c-55 -41 -60 -49 -60 -94 0 -36 5
-48 27 -66 26 -21 35 -21 333 -19 348 2 569 12 599 29 40 21 54 67 54 173 -1
125 -16 152 -84 152 -42 0 -44 -2 -74 -54 -47 -84 -76 -95 -264 -99 -84 -2
-157 0 -162 5 -10 10 -16 1004 -5 1021 4 7 25 24 47 38 35 22 39 28 39 67 0
51 -7 63 -43 76 -34 13 -369 13 -412 0z m178 -16 c-29 -2 -78 -2 -110 0 -32 2
-8 3 52 3 61 0 87 -1 58 -3z m130 0 c-13 -2 -35 -2 -50 0 -16 2 -5 4 22 4 28
0 40 -2 28 -4z m60 0 c-7 -2 -19 -2 -25 0 -7 3 -2 5 12 5 14 0 19 -2 13 -5z
m74 -65 c-3 -8 -6 -5 -6 6 -1 11 2 17 5 13 3 -3 4 -12 1 -19z m-457 -43 c14
-19 14 -19 -2 -6 -10 7 -18 18 -18 24 0 6 1 8 3 6 1 -2 9 -13 17 -24z m391
-28 c-10 -9 -11 -8 -5 6 3 10 9 15 12 12 3 -3 0 -11 -7 -18z m-34 -109 c-3 -7
-5 -2 -5 12 0 14 2 19 5 13 2 -7 2 -19 0 -25z m0 -271 c-1 -45 -3 -5 -3 88 0
94 2 130 3 82 2 -48 2 -125 0 -170z m0 -109 c-3 -8 -6 -5 -6 6 -1 11 2 17 5
13 3 -3 4 -12 1 -19z m0 -190 c-2 -35 -3 -9 -3 57 0 66 1 94 3 63 2 -32 2 -86
0 -120z m0 -120 c-2 -13 -4 -5 -4 17 -1 22 1 32 4 23 2 -10 2 -28 0 -40z m0
-90 c-3 -7 -5 -2 -5 12 0 14 2 19 5 13 2 -7 2 -19 0 -25z m557 -29 c14 -7 27
-18 30 -25 3 -8 -7 -5 -25 8 -25 19 -33 20 -49 10 -11 -7 -20 -8 -20 -3 0 9
15 18 32 20 4 1 18 -4 32 -10z m45 -141 c-1 -68 -6 -61 -11 15 -2 26 0 47 4
47 5 0 7 -28 7 -62z m-159 38 c0 -2 -8 -10 -17 -17 -16 -13 -17 -12 -4 4 13
16 21 21 21 13z m-317 -63 c-7 -2 -19 -2 -25 0 -7 3 -2 5 12 5 14 0 19 -2 13
-5z m155 0 c-21 -2 -55 -2 -75 0 -21 2 -4 4 37 4 41 0 58 -2 38 -4z m-619 -26
c-2 -1 -13 -9 -24 -17 -19 -14 -19 -14 -6 3 7 9 18 17 24 17 6 0 8 -1 6 -3z
m921 -64 c-11 -17 -11 -17 -6 0 3 10 7 26 7 35 1 15 2 15 6 0 2 -10 -1 -25 -7
-35z m-891 -59 c10 -9 -35 -3 -49 6 -11 8 -7 9 15 4 17 -4 32 -8 34 -10z"/>
<path d="M4574 6525 c-227 -49 -375 -242 -374 -485 1 -218 98 -388 268 -467
305 -143 650 37 708 369 16 90 7 209 -21 288 -81 227 -325 351 -581 295z m164
-12 c-21 -2 -57 -2 -80 0 -24 2 -7 4 37 4 44 0 63 -2 43 -4z m-173 -19 c-27
-7 -54 -13 -60 -13 -17 2 69 27 90 27 11 0 -2 -6 -30 -14z m310 -5 c12 -12 8
-11 -45 6 l-45 15 40 -6 c22 -3 44 -10 50 -15z m-462 -58 c-12 -10 -20 -21
-18 -23 3 -3 -2 -5 -12 -5 -11 0 -8 7 13 24 34 27 49 31 17 4z m568 2 c13 -16
12 -17 -3 -4 -10 7 -18 15 -18 17 0 8 8 3 21 -13z m60 -50 c13 -16 12 -17 -3
-4 -10 7 -18 15 -18 17 0 8 8 3 21 -13z m-681 4 c0 -2 -10 -12 -22 -23 l-23
-19 19 23 c18 21 26 27 26 19z m442 -46 c76 -53 118 -160 119 -306 1 -203 -84
-325 -227 -325 -139 0 -224 123 -227 328 -1 162 57 286 153 325 8 4 45 5 81 4
51 -2 74 -8 101 -26z m-529 -76 c-3 -9 -8 -14 -10 -11 -3 3 -2 9 2 15 9 16 15
13 8 -4z m647 -50 c0 -5 -5 -3 -10 5 -5 8 -10 20 -10 25 0 6 5 3 10 -5 5 -8
10 -19 10 -25z m-463 -57 c-3 -8 -6 -5 -6 6 -1 11 2 17 5 13 3 -3 4 -12 1 -19z
m480 -20 c-3 -7 -5 -2 -5 12 0 14 2 19 5 13 2 -7 2 -19 0 -25z m-490 -50 c-3
-8 -6 -5 -6 6 -1 11 2 17 5 13 3 -3 4 -12 1 -19z m500 -70 c-3 -8 -6 -5 -6 6
-1 11 2 17 5 13 3 -3 4 -12 1 -19z m-500 -45 c-3 -10 -5 -2 -5 17 0 19 2 27 5
18 2 -10 2 -26 0 -35z m500 -5 c-3 -8 -6 -5 -6 6 -1 11 2 17 5 13 3 -3 4 -12
1 -19z m-710 -40 c-3 -8 -6 -5 -6 6 -1 11 2 17 5 13 3 -3 4 -12 1 -19z m220
-10 c-3 -8 -6 -5 -6 6 -1 11 2 17 5 13 3 -3 4 -12 1 -19z"/>
<path d="M6645 6529 c-293 -27 -478 -312 -410 -634 30 -142 120 -265 236 -322
109 -54 267 -69 376 -35 144 45 269 174 233 241 -16 31 -48 26 -140 -21 -70
-36 -93 -42 -161 -46 -93 -5 -153 9 -208 49 -43 31 -86 109 -96 177 l-7 42
284 1 c322 0 346 4 365 59 24 69 6 215 -35 296 -29 57 -105 129 -167 159 -62
31 -164 43 -270 34z m110 -14 c-23 -8 -83 -10 -79 -3 3 4 24 8 47 7 23 0 38
-2 32 -4z m-107 -12 c-10 -2 -26 -2 -35 0 -10 3 -2 5 17 5 19 0 27 -2 18 -5z
m180 0 c-10 -2 -28 -2 -40 0 -13 2 -5 4 17 4 22 1 32 -1 23 -4z m-241 -9 c-3
-3 -12 -4 -19 -1 -8 3 -5 6 6 6 11 1 17 -2 13 -5z m-107 -39 c0 -2 -10 -9 -22
-15 -22 -11 -22 -10 -4 4 21 17 26 19 26 11z m510 -30 c13 -14 21 -25 18 -25
-2 0 -15 11 -28 25 -13 14 -21 25 -18 25 2 0 15 -11 28 -25z m-560 2 c0 -2
-17 -19 -37 -38 l-38 -34 34 38 c33 34 41 42 41 34z m334 -57 c66 -21 126
-123 126 -212 l0 -28 -211 0 -211 0 7 43 c14 80 62 154 120 185 58 30 105 34
169 12z m296 -30 c6 -11 8 -20 6 -20 -3 0 -10 9 -16 20 -6 11 -8 20 -6 20 3 0
10 -9 16 -20z m-803 -202 c-3 -8 -6 -5 -6 6 -1 11 2 17 5 13 3 -3 4 -12 1 -19z
m260 -134 c-3 -3 -12 -4 -19 -1 -8 3 -5 6 6 6 11 1 17 -2 13 -5z m61 -1 c-10
-2 -26 -2 -35 0 -10 3 -2 5 17 5 19 0 27 -2 18 -5z m135 0 c-7 -2 -19 -2 -25
0 -7 3 -2 5 12 5 14 0 19 -2 13 -5z m174 0 c-20 -2 -52 -2 -70 0 -17 2 0 4 38
4 39 0 53 -2 32 -4z m-430 -75 c-3 -8 -6 -5 -6 6 -1 11 2 17 5 13 3 -3 4 -12
1 -19z m613 -164 c0 -13 -3 -14 -15 -4 -9 7 -26 10 -42 6 -21 -5 -24 -4 -13 4
25 16 70 12 70 -6z m-120 -33 c-8 -5 -26 -11 -40 -15 -21 -5 -20 -3 5 9 32 15
60 20 35 6z m102 -23 c-7 -7 -12 -8 -12 -2 0 14 12 26 19 19 2 -3 -1 -11 -7
-17z m-185 -9 c-10 -6 -44 -12 -75 -15 l-57 -3 65 13 c84 17 88 17 67 5z
m-496 -26 c13 -16 12 -17 -3 -4 -10 7 -18 15 -18 17 0 8 8 3 21 -13z m352 10
c-7 -2 -19 -2 -25 0 -7 3 -2 5 12 5 14 0 19 -2 13 -5z"/>
<path d="M5855 6511 c-69 -15 -71 -99 -3 -136 65 -34 63 -42 -59 -362 -42
-112 -80 -203 -83 -203 -4 0 -13 19 -19 43 -7 23 -46 136 -87 250 -41 115 -74
217 -74 227 0 13 14 27 38 39 61 31 79 106 32 131 -11 6 -111 10 -228 10 -234
0 -236 0 -230 -67 2 -31 9 -41 37 -58 60 -36 87 -69 120 -150 125 -303 247
-580 277 -628 73 -117 159 -115 231 5 18 29 88 184 158 343 171 396 170 393
221 415 30 13 44 27 52 49 14 40 1 78 -32 91 -27 10 -304 11 -351 1z m348 -18
c6 -9 -323 -7 -331 2 -3 3 69 5 161 5 91 0 168 -3 170 -7z m-1010 -10 c-7 -2
-19 -2 -25 0 -7 3 -2 5 12 5 14 0 19 -2 13 -5z m652 -10 c-10 -9 -15 -26 -12
-39 2 -13 0 -21 -4 -18 -22 13 -2 74 24 74 5 0 1 -7 -8 -17z m-671 -53 c10
-13 9 -13 -6 -1 -10 7 -18 21 -17 30 0 13 1 14 6 1 3 -8 11 -22 17 -30z m1026
-24 c0 -2 -9 -6 -20 -9 -11 -3 -18 -1 -14 4 5 9 34 13 34 5z m-309 -203 c-12
-20 -14 -14 -5 12 4 9 9 14 11 11 3 -2 0 -13 -6 -23z m-497 -119 c3 -8 2 -12
-4 -9 -6 3 -10 10 -10 16 0 14 7 11 14 -7z m26 -59 c0 -5 -5 -3 -10 5 -5 8
-10 20 -10 25 0 6 5 3 10 -5 5 -8 10 -19 10 -25z m391 -32 c-12 -20 -14 -14
-5 12 4 9 9 14 11 11 3 -2 0 -13 -6 -23z m142 -18 c-3 -9 -8 -14 -10 -11 -3 3
-2 9 2 15 9 16 15 13 8 -4z m-162 -32 c-12 -20 -14 -14 -5 12 4 9 9 14 11 11
3 -2 0 -13 -6 -23z m142 -8 c-3 -9 -8 -14 -10 -11 -3 3 -2 9 2 15 9 16 15 13
8 -4z m-443 -80 c0 -5 -5 -3 -10 5 -5 8 -10 20 -10 25 0 6 5 3 10 -5 5 -8 10
-19 10 -25z m267 3 c-3 -8 -6 -5 -6 6 -1 11 2 17 5 13 3 -3 4 -12 1 -19z m96
-103 c-3 -9 -8 -14 -10 -11 -3 3 -2 9 2 15 9 16 15 13 8 -4z m-20 -40 c-3 -9
-8 -14 -10 -11 -3 3 -2 9 2 15 9 16 15 13 8 -4z m-255 -60 c-3 -3 -9 2 -12 12
-6 14 -5 15 5 6 7 -7 10 -15 7 -18z"/>
<path d="M4167 4050 c-146 -37 -227 -162 -227 -351 l0 -37 -60 -4 c-80 -6
-105 -29 -105 -98 0 -69 25 -92 105 -98 l60 -4 0 -327 c0 -179 5 -344 10 -366
14 -60 58 -95 121 -95 63 0 102 20 123 64 14 29 16 80 16 379 l0 345 101 4
c92 3 103 5 120 27 29 36 26 115 -6 146 -22 23 -31 25 -121 25 l-96 0 3 84 c3
65 8 89 23 105 22 25 72 27 100 6 11 -8 34 -15 51 -15 93 0 99 158 8 196 -45
19 -173 27 -226 14z m130 -17 c-20 -2 -52 -2 -70 0 -17 2 0 4 38 4 39 0 53 -2
32 -4z m-132 -13 c-11 -5 -27 -9 -35 -9 -9 0 -8 4 5 9 11 5 27 9 35 9 9 0 8
-4 -5 -9z m240 -10 c3 -5 2 -10 -4 -10 -5 0 -13 5 -16 10 -3 6 -2 10 4 10 5 0
13 -4 16 -10z m35 -55 c0 -5 -5 -3 -10 5 -5 8 -10 20 -10 25 0 6 5 3 10 -5 5
-8 10 -19 10 -25z m-3 -47 c-3 -8 -6 -5 -6 6 -1 11 2 17 5 13 3 -3 4 -12 1
-19z m-144 -15 c-7 -2 -19 -2 -25 0 -7 3 -2 5 12 5 14 0 19 -2 13 -5z m132
-22 c-3 -6 -11 -11 -17 -11 -6 0 -6 6 2 15 14 17 26 13 15 -4z m-438 -23 c-3
-8 -6 -5 -6 6 -1 11 2 17 5 13 3 -3 4 -12 1 -19z m-157 -223 c-7 -8 -18 -15
-24 -15 -6 0 -2 7 8 15 25 19 32 19 16 0z m543 8 c-13 -2 -35 -2 -50 0 -16 2
-5 4 22 4 28 0 40 -2 28 -4z m57 -37 c0 -3 -7 -3 -15 0 -8 4 -15 13 -15 21 0
12 2 12 15 -1 8 -8 15 -17 15 -20z m-633 -53 c-3 -10 -5 -4 -5 12 0 17 2 24 5
18 2 -7 2 -21 0 -30z m633 -10 c-11 -17 -11 -17 -6 0 3 10 7 26 7 35 1 15 2
15 6 0 2 -10 -1 -25 -7 -35z m-553 -49 c-3 -3 -12 -4 -19 -1 -8 3 -5 6 6 6 11
1 17 -2 13 -5z m396 -1 c-7 -2 -21 -2 -30 0 -10 3 -4 5 12 5 17 0 24 -2 18 -5z
m-306 -255 c-1 -40 -3 -10 -3 67 0 77 1 110 3 73 2 -37 2 -100 0 -140z m0
-235 c-2 -27 -3 -5 -3 47 0 52 1 74 3 48 2 -27 2 -69 0 -95z m0 -145 c-2 -18
-4 -4 -4 32 0 36 2 50 4 33 2 -18 2 -48 0 -65z m220 -80 c-3 -7 -5 -2 -5 12 0
14 2 19 5 13 2 -7 2 -19 0 -25z m-118 -74 c10 -9 -45 -3 -59 6 -11 7 -5 8 20
4 19 -4 37 -8 39 -10z m71 6 c-8 -5 -19 -10 -25 -10 -5 0 -3 5 5 10 8 5 20 10
25 10 6 0 3 -5 -5 -10z"/>
<path d="M2385 4040 c-100 -41 -107 -198 -11 -244 68 -32 162 -14 204 39 16
20 22 42 22 77 0 60 -23 102 -66 123 -34 16 -116 19 -149 5z m15 -15 c0 -2
-10 -9 -22 -15 -22 -11 -22 -10 -4 4 21 17 26 19 26 11z m120 -5 c11 -7 8 -8
-13 -6 -15 1 -30 6 -34 9 -10 11 30 8 47 -3z m-179 -57 c-12 -20 -14 -14 -5
12 4 9 9 14 11 11 3 -2 0 -13 -6 -23z m243 -33 c4 -25 3 -31 -4 -20 -5 8 -10
26 -10 39 0 32 6 24 14 -19z m-257 -32 c-3 -7 -5 -2 -5 12 0 14 2 19 5 13 2
-7 2 -19 0 -25z m34 -65 c13 -16 12 -17 -3 -4 -10 7 -18 15 -18 17 0 8 8 3 21
-13z m159 -23 c-8 -5 -40 -9 -70 -8 l-55 1 60 7 c33 4 65 7 70 8 6 1 3 -3 -5
-8z"/>
<path d="M4642 4032 c-96 -52 -96 -188 0 -232 107 -49 216 -2 233 99 9 53 -22
112 -69 135 -44 21 -122 20 -164 -2z m61 -9 c-7 -2 -19 -2 -25 0 -7 3 -2 5 12
5 14 0 19 -2 13 -5z m64 1 c-3 -3 -12 -4 -19 -1 -8 3 -5 6 6 6 11 1 17 -2 13
-5z m-107 -8 c0 -2 -7 -7 -16 -10 -8 -3 -12 -2 -9 4 6 10 25 14 25 6z m155 -6
c3 -6 -1 -7 -9 -4 -18 7 -21 14 -7 14 6 0 13 -4 16 -10z m42 -82 c-3 -8 -6 -5
-6 6 -1 11 2 17 5 13 3 -3 4 -12 1 -19z m-260 -40 c-3 -7 -5 -2 -5 12 0 14 2
19 5 13 2 -7 2 -19 0 -25z m62 -77 c-6 -2 -18 4 -27 13 -15 15 -15 15 10 4 15
-7 23 -15 17 -17z m166 19 c-3 -5 -12 -10 -18 -10 -7 0 -6 4 3 10 19 12 23 12
15 0z m-78 -26 c-3 -3 -12 -4 -19 -1 -8 3 -5 6 6 6 11 1 17 -2 13 -5z"/>
<path d="M6164 4030 c-49 -25 -67 -55 -67 -114 0 -111 115 -169 231 -116 67
30 91 108 54 179 -34 68 -136 91 -218 51z m36 -16 c-56 -17 -62 -17 -30 1 14
8 36 14 50 14 18 0 12 -4 -20 -15z m-69 -51 c-12 -20 -14 -14 -5 12 4 9 9 14
11 11 3 -2 0 -13 -6 -23z m246 -65 c-2 -13 -4 -3 -4 22 0 25 2 35 4 23 2 -13
2 -33 0 -45z m-32 -66 l-28 -27 24 31 c13 17 26 30 28 27 3 -2 -8 -16 -24 -31z
m-154 -17 c19 -8 27 -14 19 -14 -14 0 -72 28 -59 29 4 0 22 -7 40 -15z"/>
<path d="M6723 3934 c-44 -22 -60 -63 -68 -176 l-7 -98 -60 0 c-53 0 -63 -3
-89 -29 -33 -34 -38 -75 -14 -121 20 -40 43 -50 109 -50 l56 0 0 -224 c0 -232
10 -350 36 -411 41 -100 143 -159 270 -157 93 1 140 14 186 52 49 41 64 86 43
135 l-15 38 -63 -8 c-120 -15 -149 -5 -178 58 -16 37 -19 68 -19 280 l0 237
78 0 c92 0 148 14 162 40 5 10 10 39 10 65 0 35 -6 51 -25 70 -22 23 -31 25
-125 25 l-100 0 0 110 c0 106 -1 111 -27 140 -35 39 -110 50 -160 24z m74 -10
c-3 -3 -12 -4 -19 -1 -8 3 -5 6 6 6 11 1 17 -2 13 -5z m-102 -60 c-8 -16 -15
-23 -15 -16 0 13 22 53 27 48 2 -2 -3 -16 -12 -32z m-140 -234 c-11 -5 -27 -9
-35 -9 -13 -1 -13 0 0 9 8 5 24 9 35 9 l20 0 -20 -9z m566 0 c10 -6 19 -16 19
-22 0 -6 -7 -4 -18 5 -10 9 -41 17 -72 20 l-55 3 53 2 c29 1 62 -3 73 -8z
m-148 -147 c-7 -2 -21 -2 -30 0 -10 3 -4 5 12 5 17 0 24 -2 18 -5z m-296 -100
c-2 -16 -4 -5 -4 22 0 28 2 40 4 28 2 -13 2 -35 0 -50z m0 -55 c-3 -8 -6 -5
-6 6 -1 11 2 17 5 13 3 -3 4 -12 1 -19z m0 -275 c-1 -49 -3 -9 -3 87 0 96 2
136 3 88 2 -49 2 -127 0 -175z m10 -145 c-3 -8 -6 -5 -6 6 -1 11 2 17 5 13 3
-3 4 -12 1 -19z m490 -90 c-3 -8 -6 -5 -6 6 -1 11 2 17 5 13 3 -3 4 -12 1 -19z
m-150 -124 c-3 -3 -12 -4 -19 -1 -8 3 -5 6 6 6 11 1 17 -2 13 -5z"/>
<path d="M3205 3677 c-57 -15 -106 -39 -152 -73 l-32 -25 -15 34 c-26 63 -116
85 -177 44 -59 -40 -59 -34 -59 -487 0 -397 1 -416 20 -448 11 -18 32 -37 46
-42 37 -14 111 -12 143 4 52 27 55 46 58 356 2 176 7 301 14 327 21 78 91 127
180 127 68 -1 115 -25 144 -74 19 -33 20 -56 25 -352 5 -302 6 -318 26 -345
29 -38 60 -53 117 -53 61 0 101 20 118 62 21 51 18 611 -4 691 -18 69 -67 153
-109 186 -77 62 -240 94 -343 68z m-335 -27 c-8 -5 -19 -10 -25 -10 -5 0 -3 5
5 10 8 5 20 10 25 10 6 0 3 -5 -5 -10z m57 4 c-3 -3 -12 -4 -19 -1 -8 3 -5 6
6 6 11 1 17 -2 13 -5z m-107 -34 c-6 -11 -13 -20 -16 -20 -2 0 0 9 6 20 6 11
13 20 16 20 2 0 0 -9 -6 -20z m325 -120 c-3 -5 -12 -10 -18 -10 -7 0 -6 4 3
10 19 12 23 12 15 0z m-348 -57 c-3 -10 -5 -2 -5 17 0 19 2 27 5 18 2 -10 2
-26 0 -35z m0 -100 c-3 -10 -5 -2 -5 17 0 19 2 27 5 18 2 -10 2 -26 0 -35z
m850 -10 c-3 -10 -5 -2 -5 17 0 19 2 27 5 18 2 -10 2 -26 0 -35z m-850 -165
c-2 -29 -3 -6 -3 52 0 58 1 81 3 53 2 -29 2 -77 0 -105z m220 120 c-3 -8 -6
-5 -6 6 -1 11 2 17 5 13 3 -3 4 -12 1 -19z m0 -120 c-3 -8 -6 -5 -6 6 -1 11 2
17 5 13 3 -3 4 -12 1 -19z m0 -40 c-3 -8 -6 -5 -6 6 -1 11 2 17 5 13 3 -3 4
-12 1 -19z m-220 -80 c-2 -13 -4 -3 -4 22 0 25 2 35 4 23 2 -13 2 -33 0 -45z
m220 -155 c-3 -10 -5 -4 -5 12 0 17 2 24 5 18 2 -7 2 -21 0 -30z m-220 -70
c-2 -16 -4 -5 -4 22 0 28 2 40 4 28 2 -13 2 -35 0 -50z m202 -106 c-2 -1 -13
-9 -24 -17 -19 -14 -19 -14 -6 3 7 9 18 17 24 17 6 0 8 -1 6 -3z m476 -15 c-3
-3 -11 0 -18 7 -9 10 -8 11 6 5 10 -3 15 -9 12 -12z m165 14 c0 -2 -7 -7 -16
-10 -8 -3 -12 -2 -9 4 6 10 25 14 25 6z m-690 -20 c0 -2 -9 -6 -20 -9 -11 -3
-18 -1 -14 4 5 9 34 13 34 5z m573 -3 c-7 -2 -19 -2 -25 0 -7 3 -2 5 12 5 14
0 19 -2 13 -5z m65 0 c-10 -2 -26 -2 -35 0 -10 3 -2 5 17 5 19 0 27 -2 18 -5z"/>
<path d="M5493 3680 c-47 -10 -114 -42 -160 -76 l-31 -24 -20 35 c-44 74 -149
87 -204 25 l-29 -31 3 -440 3 -441 33 -29 c27 -24 41 -29 85 -29 69 0 112 26
126 77 7 22 11 155 11 323 0 256 2 289 19 326 45 98 172 132 269 72 63 -39 66
-56 72 -416 l5 -324 33 -29 c28 -25 40 -29 92 -29 51 0 64 4 90 28 19 16 35
43 40 67 12 51 12 471 0 593 -15 157 -81 255 -204 301 -65 24 -172 34 -233 21z
m-385 -44 c-10 -7 -22 -24 -27 -37 -8 -20 -10 -21 -10 -5 -1 22 26 56 43 56 6
0 3 -7 -6 -14z m307 -11 c-27 -13 -51 -23 -52 -21 -5 5 79 46 92 46 6 0 -12
-12 -40 -25z m305 15 c8 -5 11 -10 5 -10 -5 0 -17 5 -25 10 -8 5 -10 10 -5 10
6 0 17 -5 25 -10z m65 -30 c3 -6 -1 -7 -9 -4 -18 7 -21 14 -7 14 6 0 13 -4 16
-10z m79 -90 c-6 -5 -24 21 -24 34 0 6 6 1 14 -10 8 -10 12 -21 10 -24z m-577
-227 c-3 -10 -5 -2 -5 17 0 19 2 27 5 18 2 -10 2 -26 0 -35z m630 -165 c-3 -7
-5 -2 -5 12 0 14 2 19 5 13 2 -7 2 -19 0 -25z m0 -80 c-3 -7 -5 -2 -5 12 0 14
2 19 5 13 2 -7 2 -19 0 -25z m-630 -85 c-3 -10 -5 -4 -5 12 0 17 2 24 5 18 2
-7 2 -21 0 -30z m0 -45 c-3 -8 -6 -5 -6 6 -1 11 2 17 5 13 3 -3 4 -12 1 -19z
m0 -40 c-3 -8 -6 -5 -6 6 -1 11 2 17 5 13 3 -3 4 -12 1 -19z m0 -95 c-3 -10
-5 -4 -5 12 0 17 2 24 5 18 2 -7 2 -21 0 -30z m-204 -33 c3 -11 1 -18 -4 -14
-5 3 -9 12 -9 20 0 20 7 17 13 -6z m187 -29 c0 -5 -7 -12 -16 -15 -14 -5 -15
-4 -4 9 14 17 20 19 20 6z m-105 -22 l50 -6 -46 -2 c-28 0 -52 5 -65 15 -10 8
-12 12 -4 7 8 -4 38 -10 65 -14z"/>
<path d="M2374 3661 c-66 -40 -64 -23 -64 -484 0 -459 0 -461 60 -492 68 -35
178 -7 200 51 6 15 10 196 10 443 0 409 0 419 -21 445 -44 56 -126 73 -185 37z
m63 -7 c-3 -3 -12 -4 -19 -1 -8 3 -5 6 6 6 11 1 17 -2 13 -5z m40 0 c-3 -3
-12 -4 -19 -1 -8 3 -5 6 6 6 11 1 17 -2 13 -5z m-87 -14 c-8 -6 -24 -15 -35
-21 -16 -8 -15 -6 4 10 13 12 28 21 35 21 6 0 4 -5 -4 -10z m177 -187 c-2 -16
-4 -5 -4 22 0 28 2 40 4 28 2 -13 2 -35 0 -50z m0 -80 c-3 -10 -5 -2 -5 17 0
19 2 27 5 18 2 -10 2 -26 0 -35z m0 -55 c-3 -8 -6 -5 -6 6 -1 11 2 17 5 13 3
-3 4 -12 1 -19z m-240 -20 c-3 -8 -6 -5 -6 6 -1 11 2 17 5 13 3 -3 4 -12 1
-19z m240 -280 c-3 -8 -6 -5 -6 6 -1 11 2 17 5 13 3 -3 4 -12 1 -19z m0 -40
c-3 -8 -6 -5 -6 6 -1 11 2 17 5 13 3 -3 4 -12 1 -19z m0 -40 c-3 -8 -6 -5 -6
6 -1 11 2 17 5 13 3 -3 4 -12 1 -19z m-23 -213 c-6 -14 -35 -35 -49 -35 -5 0
46 49 52 50 1 0 0 -7 -3 -15z m-109 -25 l50 -7 -45 -1 c-25 -1 -56 6 -70 14
-16 10 -18 13 -5 8 11 -4 43 -10 70 -14z"/>
<path d="M4642 3664 c-62 -32 -62 -30 -62 -488 0 -245 4 -425 10 -440 14 -38
66 -66 123 -66 67 0 102 21 122 73 15 39 16 90 13 448 -2 292 -6 410 -15 425
-31 54 -130 79 -191 48z m91 -11 c-13 -2 -33 -2 -45 0 -13 2 -3 4 22 4 25 0
35 -2 23 -4z m-73 -6 c0 -2 -15 -13 -32 -26 l-33 -22 28 25 c26 24 37 31 37
23z m167 -144 c-3 -10 -5 -2 -5 17 0 19 2 27 5 18 2 -10 2 -26 0 -35z m0 -525
c-1 -95 -3 -20 -3 167 0 187 2 265 3 173 2 -92 2 -245 0 -340z m-47 -278 c-8
-5 -22 -9 -30 -9 -10 0 -8 3 5 9 27 12 43 12 25 0z m-62 -7 c-10 -2 -28 -2
-40 0 -13 2 -5 4 17 4 22 1 32 -1 23 -4z"/>
<path d="M6194 3660 c-69 -35 -69 -33 -72 -435 -4 -444 -1 -478 43 -522 30
-30 39 -33 89 -33 32 0 70 7 85 15 52 26 54 42 55 483 1 224 -2 419 -7 434
-17 64 -121 95 -193 58z m147 -27 c13 -17 13 -17 -6 -3 -11 8 -22 16 -24 17
-2 2 0 3 6 3 6 0 17 -8 24 -17z m26 -45 c-3 -8 -6 -5 -6 6 -1 11 2 17 5 13 3
-3 4 -12 1 -19z m10 -85 c-3 -10 -5 -2 -5 17 0 19 2 27 5 18 2 -10 2 -26 0
-35z m0 -55 c-3 -8 -6 -5 -6 6 -1 11 2 17 5 13 3 -3 4 -12 1 -19z m0 -140 c-2
-18 -4 -6 -4 27 0 33 2 48 4 33 2 -15 2 -42 0 -60z m-230 30 c-3 -8 -6 -5 -6
6 -1 11 2 17 5 13 3 -3 4 -12 1 -19z m0 -40 c-3 -8 -6 -5 -6 6 -1 11 2 17 5
13 3 -3 4 -12 1 -19z m230 -90 c-3 -7 -5 -2 -5 12 0 14 2 19 5 13 2 -7 2 -19
0 -25z m0 -80 c-3 -8 -6 -5 -6 6 -1 11 2 17 5 13 3 -3 4 -12 1 -19z m0 -110
c-2 -13 -4 -3 -4 22 0 25 2 35 4 23 2 -13 2 -33 0 -45z m0 -50 c-3 -8 -6 -5
-6 6 -1 11 2 17 5 13 3 -3 4 -12 1 -19z m-230 -150 c-2 -13 -4 -3 -4 22 0 25
2 35 4 23 2 -13 2 -33 0 -45z m213 -102 c0 -2 -7 -7 -16 -10 -8 -3 -12 -2 -9
4 6 10 25 14 25 6z m-133 -22 c-3 -3 -12 -4 -19 -1 -8 3 -5 6 6 6 11 1 17 -2
13 -5z m80 0 c-3 -3 -12 -4 -19 -1 -8 3 -5 6 6 6 11 1 17 -2 13 -5z"/>
<path d="M7300 3662 c-60 -29 -55 -63 45 -323 210 -544 235 -610 235 -624 0
-26 -61 -145 -92 -181 -17 -20 -52 -42 -86 -54 -31 -12 -65 -28 -74 -37 -43
-39 -25 -129 33 -159 63 -32 176 -5 266 63 44 34 116 144 152 233 33 82 216
572 306 820 31 85 56 172 57 194 1 54 -26 78 -94 84 -44 3 -59 0 -88 -20 -42
-29 -54 -58 -157 -400 -43 -142 -80 -258 -83 -258 -3 0 -52 139 -109 310 -57
171 -113 319 -123 330 -40 43 -126 53 -188 22z m743 -9 c-7 -2 -21 -2 -30 0
-10 3 -4 5 12 5 17 0 24 -2 18 -5z m63 -15 c19 -23 19 -23 -1 -7 -11 9 -27 19
-35 22 -13 5 -13 6 1 6 9 1 24 -9 35 -21z m-126 9 c0 -2 -12 -14 -27 -28 l-28
-24 24 28 c23 25 31 32 31 24z m147 -59 c-3 -8 -6 -5 -6 6 -1 11 2 17 5 13 3
-3 4 -12 1 -19z m-614 -1063 c-3 -9 -8 -14 -10 -11 -3 3 -2 9 2 15 9 16 15 13
8 -4z m-133 -79 c0 -2 -9 -6 -20 -9 -11 -3 -18 -1 -14 4 5 9 34 13 34 5z m290
-30 c0 -2 -8 -10 -17 -17 -16 -13 -17 -12 -4 4 13 16 21 21 21 13z m-325 -85
c4 -7 21 -19 39 -27 20 -8 24 -13 13 -14 -29 0 -77 54 -76 87 l1 28 7 -31 c4
-17 11 -36 16 -43z"/>
</g>
</svg>
